<svg class="EmptyBox_img" 
    xmlns="http://www.w3.org/2000/svg" 
    xmlns:xlink="http://www.w3.org/1999/xlink" version="1.1" x="0px" y="0px" viewBox="0 0 16 16" style="enable-background:new 0 0 16 16;" xml:space="preserve">
    <g>
        <path d="M14.5,13h-13C1.224,13,1,12.776,1,12.5v-5c0-0.108,0.035-0.213,0.1-0.3l3-4C4.194,3.074,4.343,3,4.5,3h7   c0.157,0,0.306,0.074,0.4,0.2l3,4C14.965,7.287,15,7.392,15,7.5v5C15,12.776,14.776,13,14.5,13z M2,12h12V7.667L11.25,4h-6.5   L2,7.667V12z"></path>
        <path d="M10.5,10h-5C5.224,10,5,9.776,5,9.5V8H1.5C1.224,8,1,7.776,1,7.5S1.224,7,1.5,7h4C5.776,7,6,7.224,6,7.5V9h4V7.5   C10,7.224,10.224,7,10.5,7h4C14.776,7,15,7.224,15,7.5S14.776,8,14.5,8H11v1.5C11,9.776,10.776,10,10.5,10z"></path>
    </g>
</svg>